<?xml version="1.0" standalone="no"?>
<!DOCTYPE svg PUBLIC "-//W3C//DTD SVG 20010904//EN"
 "http://www.w3.org/TR/2001/REC-SVG-20010904/DTD/svg10.dtd">
<svg version="1.0" xmlns="http://www.w3.org/2000/svg"
 width="512.000000pt" height="512.000000pt" viewBox="0 0 512.000000 512.000000"
 preserveAspectRatio="xMidYMid meet">
<metadata>
Created by potrace 1.14, written by Peter Selinger 2001-2017
</metadata>
<g transform="translate(0.000000,512.000000) scale(0.100000,-0.100000)"
fill="#000000" stroke="none">
<path d="M0 2560 l0 -2560 2560 0 2560 0 0 2560 0 2560 -2560 0 -2560 0 0
-2560z m2438 1138 l3 -138 -416 0 -415 0 0 -1140 0 -1140 -165 0 -165 0 0
1140 0 1140 -410 0 -410 0 0 140 0 140 988 -2 987 -3 3 -137z m1357 114 c465
-102 764 -425 851 -917 25 -143 25 -538 0 -680 -93 -520 -418 -844 -921 -920
-76 -11 -195 -15 -502 -15 l-403 0 0 1281 0 1281 443 -5 c392 -4 452 -7 532
-25z"/>
<path d="M3152 2559 l3 -1004 175 -3 c294 -5 448 20 590 94 214 112 348 318
395 608 20 121 20 477 0 606 -54 359 -241 590 -544 672 -65 18 -115 21 -349
25 l-272 5 2 -1003z"/>
</g>
</svg>
